<svg id="Capa_1" enable-background="new 0 0 512 512" height="50" viewBox="0 0 512 512" width="50" xmlns="http://www.w3.org/2000/svg"><g><g><path d="m7.5 258.809c12.401-19.67 35.573-32.9 62.125-32.9s49.724 13.23 62.125 32.9c12.401-19.67 35.573-32.9 62.125-32.9s49.724 13.23 62.125 32.9c12.401-19.67 35.573-32.9 62.125-32.9s49.724 13.23 62.125 32.9c12.401-19.67 35.573-32.9 62.125-32.9s49.724 13.23 62.125 32.9c0-137.243-111.257-248.5-248.5-248.5s-248.5 111.257-248.5 248.5z" fill="#b3e59f"/><path d="m256 10.309c-68.62 0-124.25 111.26-124.25 248.5-12.4-19.67-35.57-32.9-62.13-32.9-26.55 0-49.72 13.23-62.12 32.9 0-137.24 111.26-248.5 248.5-248.5z" fill="#95d6a4"/><path d="m208.782 501.694c-35.686 0-64.718-29.032-64.718-64.718v-26.293c0-9.665 7.835-17.5 17.5-17.5s17.5 7.835 17.5 17.5v26.293c0 16.386 13.331 29.718 29.718 29.718s29.718-13.332 29.718-29.718v-59.032c0-9.665 7.835-17.5 17.5-17.5s17.5 7.835 17.5 17.5v59.032c0 35.686-29.032 64.718-64.718 64.718z" fill="#407093"/><g fill="#2b4d66"><path d="m224.007 466.694c16.387 0 29.718-13.332 29.718-29.718v-59.032c0-6.933 4.042-12.906 9.888-15.739-2.304-1.117-4.88-1.761-7.612-1.761-9.665 0-17.5 7.835-17.5 17.5v59.032c0 13.755-9.396 25.354-22.105 28.725 2.429.645 4.98.993 7.611.993z"/><path d="m159.289 436.976v-26.293c0-6.933 4.042-12.906 9.888-15.739-2.304-1.117-4.88-1.761-7.612-1.761-9.665 0-17.5 7.835-17.5 17.5v26.293c0 35.686 29.032 64.718 64.718 64.718 2.577 0 5.113-.168 7.612-.463-32.11-3.782-57.106-31.146-57.106-64.255z"/></g></g><path d="m437.019 77.789c-48.301-48.3-112.505-74.92-180.805-74.975-.071 0-.142-.005-.213-.005-.061 0-.122.004-.182.004-58.19.04-113.012 19.102-158.552 55.137-3.248 2.57-3.798 7.287-1.228 10.535 2.569 3.249 7.286 3.797 10.536 1.228 28.892-22.862 61.76-38.455 96.89-46.21-15.63 13.013-29.885 31.944-42.031 56.236-21.618 43.235-34.474 99.184-36.797 159.257-14.598-12.992-34.302-20.584-55.016-20.584-20.107 0-39.271 7.155-53.729 19.463 4.814-56.253 28.983-108.555 69.266-149.044 2.921-2.937 2.908-7.685-.027-10.606-2.938-2.922-7.687-2.91-10.607.027-48.058 48.304-74.524 112.428-74.524 180.559 0 3.34 2.209 6.278 5.418 7.206 3.211.927 6.646-.379 8.427-3.206 11.432-18.134 32.804-29.399 55.775-29.399 22.978 0 44.354 11.265 55.785 29.399 1.374 2.179 3.77 3.5 6.345 3.5s4.971-1.322 6.345-3.5c11.432-18.134 32.804-29.399 55.775-29.399 22.226 0 42.951 10.541 54.63 27.642v93.039c-10.132 3.193-17.5 12.676-17.5 23.849v59.03c0 12.252-9.968 22.22-22.22 22.22-12.253 0-22.221-9.968-22.221-22.22v-26.29c0-13.785-11.215-25-25-25s-25 11.215-25 25v26.29c0 39.822 32.398 72.22 72.221 72.22s72.22-32.398 72.22-72.221v-8.4c0-4.142-3.357-7.5-7.5-7.5s-7.5 3.358-7.5 7.5v8.4c0 31.551-25.669 57.22-57.22 57.22-31.552 0-57.221-25.668-57.221-57.22v-26.29c0-5.514 4.486-10 10-10s10 4.486 10 10v26.29c0 20.523 16.697 37.22 37.221 37.22s37.22-16.697 37.22-37.22v-59.03c0-5.514 4.486-10 10-10s10 4.486 10 10v20.63c0 4.142 3.357 7.5 7.5 7.5s7.5-3.358 7.5-7.5v-20.63c0-11.173-7.368-20.656-17.5-23.849v-93.039c11.678-17.101 32.4-27.642 54.62-27.642 22.978 0 44.354 11.265 55.785 29.399 1.374 2.179 3.77 3.5 6.345 3.5s4.971-1.322 6.345-3.5c11.432-18.134 32.804-29.399 55.775-29.399 22.978 0 44.354 11.265 55.785 29.399 1.398 2.219 3.817 3.501 6.345 3.501.691 0 1.393-.096 2.082-.295 3.209-.927 5.418-3.865 5.418-7.206 0-68.381-26.629-132.67-74.981-181.021zm-243.149 140.622c-20.325 0-39.681 7.313-54.191 19.867 2.367-57.468 14.64-110.769 35.171-151.832 20.291-40.582 46.205-64.431 73.649-68.119v167.084 53.236c-14.557-12.782-34.099-20.236-54.629-20.236zm124.25 0c-20.525 0-40.064 7.454-54.62 20.235v-53.235-167.083c27.444 3.688 53.359 27.537 73.649 68.119 20.531 41.062 32.805 94.364 35.171 151.832-14.511-12.555-33.87-19.868-54.2-19.868zm124.25 0c-20.708 0-40.411 7.592-55.007 20.583-2.323-60.073-15.179-116.021-36.797-159.256-12.136-24.271-26.377-43.191-41.992-56.203 44.3 9.808 84.978 32.003 117.837 64.861 40.549 40.548 64.869 93.002 69.697 149.48-14.458-12.31-33.625-19.465-53.738-19.465z"/></g></svg>